<svg xmlns="http://www.w3.org/2000/svg"   width="160px" height="43px"><defs><style>.cls-1{fill:#fff;}.cls-2{fill:#999;}</style></defs><title>Recurso 2</title><g id="Capa_2" data-name="Capa 2"><g id="Capa_1-2" data-name="Capa 1"><path class="cls-1" d="M137.69,11.51H120.31l-20,42.11-.67.05V45.6H78.2v-8H98.26V28.22H78.2V19.53H99.59v-8H0V55H115l4.68-8H141l4,8h14Zm-17.38,27.4,9.36-20,9.36,20Z" transform="translate(0 -11.51)"/><polygon class="cls-2" points="2.67 2.67 2.67 40.77 13.37 40.77 13.37 24.73 26.07 24.73 26.07 17.38 13.37 17.38 13.37 10.03 27.41 10.03 27.41 2.67 2.67 2.67"/><path class="cls-2" d="M58.44,43.15a70.22,70.22,0,0,0,.42,8H50.62a12.45,12.45,0,0,1-.43-3c-1.13,1.75-3.25,3.77-8.76,3.77-7.5,0-10.67-4.94-10.67-9.77,0-7.09,5.7-10.36,14.82-10.36H50V29.88c0-2.21-.8-4.39-4.8-4.39-3.64,0-4.43,1.55-4.83,3.8H32.2c.47-5.53,3.89-10,13.36-9.95,8.34.05,12.88,3.31,12.88,10.72ZM50,37H46.52c-5.19,0-7.12,1.59-7.12,4.59,0,2.25,1.39,4.15,4.48,4.15C49.36,45.76,50,42,50,37.84Z" transform="translate(0 -11.51)"/></g></g></svg>